<?xml version="1.0" encoding="utf-8"?>
<!-- Generator: Adobe Illustrator 19.0.0, SVG Export Plug-In . SVG Version: 6.00 Build 0)  -->
<svg version="1.1" id="Layer_1" xmlns="http://www.w3.org/2000/svg" xmlns:xlink="http://www.w3.org/1999/xlink" x="0px" y="0px"
	 viewBox="44 -9 111 42" style="enable-background:new 44 -9 111 42;" xml:space="preserve">
<style type="text/css">
	.st0{fill:#605BFF;}
	.st1{fill:#442C2E;}
</style>
<path class="st0" d="M86.9,12.1L86.9,12.1C86.9,0.4,77.4-9,65.9-9C55.1-9,46.2-0.8,45,9.7l11.7,5.7c0.6-0.8,1.5-1.3,2.6-1.3
	c0.9,0,1.7,0.4,2.3,1l9.3-7.7c0-1.7,1.4-3.1,3.1-3.1c1.6,0,2.9,1.2,3.1,2.8L86.9,12.1z M62.4,16.9l9.1-7.5c0.6,0.7,1.5,1.2,2.5,1.2
	c1.1,0,2.1-0.6,2.7-1.5l10.1,5.2C85.6,24.8,76.7,33,65.9,33c-11.6,0-21-9.4-21-21v-0.1l11.2,5.5c0.1,1.7,1.4,3,3.1,3
	c1.7,0,3.2-1.4,3.2-3.1C62.4,17.1,62.4,17,62.4,16.9z"/>
<path class="st1" d="M86.8,12.1L86.8,12.1C86.8,0.4,77.4-9,65.8-9C55-9,46.1-0.8,44.9,9.7l11.7,5.7c0.6-0.8,1.5-1.3,2.6-1.3
	c0.9,0,1.7,0.4,2.3,1l9.3-7.7c0-1.7,1.4-3.1,3.1-3.1c1.6,0,2.9,1.2,3.1,2.8L86.8,12.1z M62.3,16.9l9.1-7.5c0.6,0.7,1.5,1.2,2.5,1.2
	c1.1,0,2.1-0.6,2.7-1.5l10.1,5.2C85.5,24.8,76.6,33,65.8,33c-11.6,0-21-9.4-21-21v-0.1L56,17.4c0.1,1.7,1.4,3,3.1,3
	c1.7,0,3.2-1.4,3.2-3.1C62.3,17.1,62.3,17,62.3,16.9z"/>
<path class="st1" d="M113.7,11.3c1,0.3,1.7,0.8,2.3,1.5c0.5,0.7,0.8,1.6,0.8,2.6c0,1.5-0.5,2.6-1.5,3.4s-2.4,1.2-4.2,1.2H105
	c-0.4,0-0.7-0.1-0.9-0.3c-0.2-0.2-0.3-0.5-0.3-0.9V4.3c0-0.4,0.1-0.7,0.3-0.9c0.2-0.2,0.5-0.3,0.9-0.3h5.9c1.7,0,3.1,0.4,4.1,1.2
	s1.5,1.8,1.5,3.2c0,0.9-0.2,1.7-0.7,2.3C115.2,10.5,114.6,11,113.7,11.3z M106.2,10.4h4.3c2.4,0,3.6-0.9,3.6-2.7
	c0-0.9-0.3-1.6-0.9-2s-1.5-0.6-2.7-0.6h-4.3V10.4z M110.8,18c1.2,0,2.1-0.2,2.7-0.7c0.6-0.4,0.9-1.1,0.9-2.1s-0.3-1.7-0.9-2.1
	c-0.6-0.5-1.5-0.7-2.7-0.7h-4.7V18H110.8z M124.7,8c1.6,0,2.7,0.4,3.5,1.2c0.8,0.8,1.2,2,1.2,3.6V19c0,0.4-0.1,0.7-0.3,0.9
	c-0.2,0.2-0.5,0.3-0.9,0.3c-0.4,0-0.6-0.1-0.8-0.3s-0.3-0.5-0.3-0.8v-0.9c-0.3,0.7-0.8,1.2-1.4,1.6s-1.3,0.5-2.1,0.5
	c-0.8,0-1.5-0.2-2.1-0.5s-1.1-0.8-1.5-1.3s-0.6-1.2-0.6-1.8c0-0.9,0.2-1.5,0.6-2s1.2-0.8,2.2-1.1c1-0.2,2.4-0.3,4.2-0.3h0.6v-0.7
	c0-0.9-0.2-1.5-0.6-1.9s-1-0.6-1.8-0.6c-0.6,0-1.1,0.1-1.6,0.2c-0.5,0.1-1,0.4-1.6,0.6c-0.4,0.2-0.7,0.4-0.9,0.4
	c-0.2,0-0.4-0.1-0.6-0.3c-0.1-0.2-0.2-0.4-0.2-0.7c0-0.2,0.1-0.4,0.2-0.6c0.1-0.2,0.4-0.4,0.7-0.6c0.6-0.3,1.2-0.5,2-0.7
	C123.2,8.1,124,8,124.7,8z M123.9,18.4c0.9,0,1.6-0.3,2.2-0.9s0.8-1.4,0.8-2.3v-0.6h-0.4c-1.2,0-2.2,0.1-2.9,0.2
	c-0.7,0.1-1.2,0.3-1.4,0.6c-0.3,0.3-0.4,0.6-0.4,1.1c0,0.6,0.2,1,0.6,1.4S123.3,18.4,123.9,18.4z M136.7,20.2c-1.6,0-3-0.3-4-1
	c-0.3-0.2-0.5-0.4-0.6-0.6s-0.2-0.4-0.2-0.6c0-0.3,0.1-0.5,0.2-0.6s0.3-0.3,0.6-0.3c0.2,0,0.5,0.1,1,0.4s0.9,0.5,1.4,0.6
	c0.5,0.2,1,0.2,1.7,0.2c0.8,0,1.4-0.1,1.8-0.4c0.4-0.3,0.6-0.7,0.6-1.2c0-0.3-0.1-0.6-0.3-0.8s-0.4-0.4-0.9-0.5
	c-0.4-0.2-1-0.3-1.8-0.5c-1.4-0.3-2.4-0.7-3-1.2s-0.9-1.2-0.9-2.1c0-0.7,0.2-1.3,0.6-1.8c0.4-0.6,1-1,1.7-1.3S136.1,8,137,8
	c0.6,0,1.3,0.1,1.9,0.3c0.6,0.2,1.1,0.4,1.6,0.7c0.5,0.4,0.8,0.8,0.8,1.2c0,0.3-0.1,0.5-0.2,0.6c-0.1,0.2-0.3,0.3-0.5,0.3
	c-0.1,0-0.3,0-0.4-0.1c-0.1-0.1-0.3-0.2-0.6-0.3c-0.4-0.3-0.8-0.5-1.2-0.6s-0.8-0.2-1.4-0.2c-0.7,0-1.2,0.1-1.6,0.4
	c-0.4,0.3-0.6,0.7-0.6,1.2c0,0.4,0.2,0.8,0.6,1.1c0.4,0.2,1.1,0.5,2.1,0.7c1.1,0.2,1.9,0.5,2.5,0.8s1,0.6,1.3,1.1
	c0.3,0.4,0.4,1,0.4,1.6c0,1-0.4,1.9-1.3,2.5C139.3,19.9,138.1,20.2,136.7,20.2z M153.3,17c0.2,0,0.4,0.1,0.6,0.3s0.2,0.4,0.2,0.7
	c0,0.5-0.3,0.9-0.9,1.2c-0.6,0.3-1.2,0.6-1.8,0.7c-0.7,0.2-1.3,0.3-1.9,0.3c-1.9,0-3.3-0.5-4.4-1.6c-1.1-1.1-1.6-2.6-1.6-4.4
	c0-1.2,0.2-2.3,0.7-3.2s1.1-1.6,2-2.2c0.9-0.5,1.8-0.8,2.9-0.8c1.6,0,2.8,0.5,3.7,1.5s1.4,2.4,1.4,4.1c0,0.6-0.3,1-0.9,1h-7.4
	c0.2,2.5,1.4,3.7,3.6,3.7c0.6,0,1.1-0.1,1.5-0.2c0.4-0.2,0.9-0.4,1.4-0.6c0,0,0.2-0.1,0.4-0.2C153,17.1,153.2,17,153.3,17z
	 M149.2,9.8c-0.9,0-1.7,0.3-2.2,0.9c-0.6,0.6-0.9,1.4-1,2.5h6.2c0-1.1-0.3-1.9-0.8-2.5C150.8,10.1,150.1,9.8,149.2,9.8z"/>
</svg>
